HIERARCHY
ROOT Hips
{
	OFFSET 0.000000 89.005402 0.000000
	CHANNELS 6 Xposition Yposition Zposition Xrotation Yrotation Zrotation
	JOINT Spine
	{
		OFFSET 0.116900 10.681000 0.373400
		CHANNELS 3 Xrotation Yrotation Zrotation
		JOINT Spine1
		{
			OFFSET 0.000000 13.840401 0.053500
			CHANNELS 3 Xrotation Yrotation Zrotation
			JOINT Spine2
			{
				OFFSET 0.000000 14.712700 -0.366200
				CHANNELS 3 Xrotation Yrotation Zrotation
				JOINT Neck
				{
					OFFSET 0.000000 35.415497 -3.314200
					CHANNELS 3 Xrotation Yrotation Zrotation
					JOINT Head
					{
						OFFSET 0.000000 16.899200 1.218300
						CHANNELS 3 Xrotation Yrotation Zrotation
						JOINT HeadTop_End
						{
							OFFSET 0.000000 22.206207 2.192500
							CHANNELS 3 Xrotation Yrotation Zrotation
							End Site
							{
								OFFSET 0.000000 22.314178 0.000000
							}
						}
					}
				}
				JOINT LeftShoulder
				{
					OFFSET 12.896400 26.716293 -4.548400
					CHANNELS 3 Xrotation Yrotation Zrotation
					JOINT LeftArm
					{
						OFFSET 19.027000 -4.857010 -1.718400
						CHANNELS 3 Xrotation Yrotation Zrotation
						JOINT LeftForeArm
						{
							OFFSET 24.179897 0.000000 0.000000
							CHANNELS 3 Xrotation Yrotation Zrotation
							JOINT LeftHand
							{
								OFFSET 27.156403 0.000000 0.000000
								CHANNELS 3 Xrotation Yrotation Zrotation
								JOINT LeftHandIndex1
								{
									OFFSET 16.441200 0.000000 0.000000
									CHANNELS 3 Xrotation Yrotation Zrotation
									JOINT LeftHandIndex2
									{
										OFFSET 4.821899 0.000000 0.000000
										CHANNELS 3 Xrotation Yrotation Zrotation
										JOINT LeftHandIndex3
										{
											OFFSET 6.386497 0.000000 0.000000
											CHANNELS 3 Xrotation Yrotation Zrotation
											JOINT LeftHandIndex4
											{
												OFFSET 5.188988 0.000000 0.000000
												CHANNELS 3 Xrotation Yrotation Zrotation
												End Site
												{
													OFFSET -0.178703 5.185913 0.000177
												}
											}
										}
									}
								}
								JOINT LeftHandThumb1
								{
									OFFSET 6.534897 -5.032593 5.900300
									CHANNELS 3 Xrotation Yrotation Zrotation
									JOINT LeftHandThumb2
									{
										OFFSET 3.818176 -2.204422 2.204423
										CHANNELS 3 Xrotation Yrotation Zrotation
										JOINT LeftHandThumb3
										{
											OFFSET 3.252098 -1.877594 1.877601
											CHANNELS 3 Xrotation Yrotation Zrotation
											JOINT LeftHandThumb4
											{
												OFFSET 5.251778 -3.032120 3.032117
												CHANNELS 3 Xrotation Yrotation Zrotation
												End Site
												{
													OFFSET 0.000023 6.780014 0.000000
												}
											}
										}
									}
								}
							}
						}
					}
				}
				JOINT RightShoulder
				{
					OFFSET -12.896300 26.716293 -4.548400
					CHANNELS 3 Xrotation Yrotation Zrotation
					JOINT RightArm
					{
						OFFSET -19.027000 -4.857010 -1.718400
						CHANNELS 3 Xrotation Yrotation Zrotation
						JOINT RightForeArm
						{
							OFFSET -24.179897 0.000000 0.000000
							CHANNELS 3 Xrotation Yrotation Zrotation
							JOINT RightHand
							{
								OFFSET -27.156403 0.000000 0.000000
								CHANNELS 3 Xrotation Yrotation Zrotation
								JOINT RightHandThumb1
								{
									OFFSET -6.591202 -4.852203 5.988100
									CHANNELS 3 Xrotation Yrotation Zrotation
									JOINT RightHandThumb2
									{
										OFFSET -3.818176 -2.204422 2.204423
										CHANNELS 3 Xrotation Yrotation Zrotation
										JOINT RightHandThumb3
										{
											OFFSET -3.252098 -1.877594 1.877601
											CHANNELS 3 Xrotation Yrotation Zrotation
											JOINT RightHandThumb4
											{
												OFFSET -5.251778 -3.032120 3.032117
												CHANNELS 3 Xrotation Yrotation Zrotation
												End Site
												{
													OFFSET -0.000023 6.780014 0.000000
												}
											}
										}
									}
								}
								JOINT RightHandIndex1
								{
									OFFSET -16.029404 0.000000 0.000000
									CHANNELS 3 Xrotation Yrotation Zrotation
									JOINT RightHandIndex2
									{
										OFFSET -5.213303 0.000000 0.000000
										CHANNELS 3 Xrotation Yrotation Zrotation
										JOINT RightHandIndex3
										{
											OFFSET -6.386528 0.000000 0.000000
											CHANNELS 3 Xrotation Yrotation Zrotation
											JOINT RightHandIndex4
											{
												OFFSET -5.189026 0.000000 0.000000
												CHANNELS 3 Xrotation Yrotation Zrotation
												End Site
												{
													OFFSET 0.236702 5.183624 0.001972
												}
											}
										}
									}
								}
							}
						}
					}
				}
			}
		}
	}
	JOINT LeftUpLeg
	{
		OFFSET 14.073000 -7.904099 -1.463000
		CHANNELS 3 Xrotation Yrotation Zrotation
		JOINT LeftLeg
		{
			OFFSET -0.109806 -34.073280 4.093200
			CHANNELS 3 Xrotation Yrotation Zrotation
			JOINT LeftFoot
			{
				OFFSET 0.109806 -29.899420 -6.319000
				CHANNELS 3 Xrotation Yrotation Zrotation
				JOINT LeftToeBase
				{
					OFFSET 1.551100 -14.988700 20.535801
					CHANNELS 3 Xrotation Yrotation Zrotation
					JOINT LeftToe_End
					{
						OFFSET 0.221200 0.570800 13.248301
						CHANNELS 3 Xrotation Yrotation Zrotation
						End Site
						{
							OFFSET 0.000000 13.262435 0.000000
						}
					}
				}
			}
		}
	}
	JOINT RightUpLeg
	{
		OFFSET -13.839300 -7.904099 -1.463000
		CHANNELS 3 Xrotation Yrotation Zrotation
		JOINT RightLeg
		{
			OFFSET 0.109694 -34.073219 4.093300
			CHANNELS 3 Xrotation Yrotation Zrotation
			JOINT RightFoot
			{
				OFFSET -0.109694 -29.899384 -6.319200
				CHANNELS 3 Xrotation Yrotation Zrotation
				JOINT RightToeBase
				{
					OFFSET -1.551100 -14.988700 20.535801
					CHANNELS 3 Xrotation Yrotation Zrotation
					JOINT RightToe_End
					{
						OFFSET -0.221200 0.570900 13.248299
						CHANNELS 3 Xrotation Yrotation Zrotation
						End Site
						{
							OFFSET 0.000000 13.262440 0.000000
						}
					}
				}
			}
		}
	}
}
MOTION
Frames: 4
Frame Time: 0.033333
-0.372251 74.676926 4.484416 -4.777285 -38.807929 -7.418152 1.538453 3.326794 -0.992895 3.418231 6.595191 -4.407260 3.371464 6.611714 -4.417353 9.949753 5.247517 -0.499764 -9.281331 25.859409 5.090637 0.000000 0.000001 -0.000000 0.374367 1.963671 -4.150314 -31.474417 17.927635 0.725699 0.000011 -19.129577 0.000007 25.542264 -13.177789 14.206771 5.246493 6.685104 -76.225519 8.439470 6.703247 -103.118795 2.586201 5.381277 -51.311837 -0.000003 -0.000001 0.000001 -0.392485 20.153844 5.325747 -0.292230 21.311474 8.578931 -2.225103 8.327721 6.202482 -0.000000 -0.000001 -0.000003 0.793575 3.506302 8.127050 38.967766 11.905389 30.739792 0.000002 110.765752 -0.000004 -0.357576 16.226088 -40.878286 8.531617 -12.277394 5.179318 -1.921772 -26.072801 -17.001464 -3.113374 -8.655601 -9.962465 0.000003 -0.000001 -0.000001 0.112231 -1.246759 10.287158 0.024416 -0.583377 4.792832 0.006119 -0.291956 2.396356 -0.000003 -0.000000 -0.000000 -28.240472 -1.035784 24.912517 55.331134 -3.771792 4.431683 -21.294243 5.493880 -19.432993 -0.009339 0.000003 -0.000003 -0.000000 0.000001 -0.000000 1.799804 -15.223028 -18.634206 38.384738 -6.704866 -0.619693 -28.039458 -9.364832 27.005632 -0.734231 0.000007 0.000004 -0.000000 0.000002 0.000000 
-0.081151 73.929291 4.498168 -4.451370 -36.427410 -7.792435 1.860396 4.549309 -0.924359 4.106485 8.957026 -3.907798 4.050312 8.974180 -3.925278 10.106298 3.833290 0.165490 -11.062197 17.057289 8.098725 0.000000 0.000000 0.000000 0.320261 3.191723 -4.877532 -26.056786 30.369746 -0.291336 -0.000002 -22.817621 -0.000000 21.495266 -1.970425 5.620672 5.246494 6.685104 -76.225526 8.439467 6.703247 -103.118795 2.586201 5.381277 -51.311837 0.000003 -0.000001 -0.000001 -0.392484 20.153844 5.325747 -0.292229 21.311471 8.578930 -2.225103 8.327723 6.202478 0.000000 0.000002 0.000000 0.769330 2.953729 8.116974 38.685710 6.552310 33.616586 -0.000003 109.246164 -0.000009 -1.037551 18.788196 -40.329603 8.531615 -12.277396 5.179319 -1.921773 -26.072804 -17.001468 -3.113371 -8.655610 -9.962470 -0.000000 -0.000002 0.000002 0.112233 -1.246759 10.287156 0.024413 -0.583378 4.792832 0.006122 -0.291956 2.396355 0.000001 0.000000 -0.000000 -30.769575 -2.299851 24.776528 57.594518 -4.752236 5.213953 -21.445063 5.293036 -19.587400 -0.005048 -0.000014 -0.000001 0.000000 0.000000 0.000000 2.761807 -14.489907 -17.314234 39.683447 -6.534408 -0.187937 -28.877907 -12.550532 26.776153 -0.326369 -0.000017 -0.000002 0.000000 -0.000000 0.000000 
0.200181 72.986183 4.343808 -4.700326 -29.780492 -7.929420 2.094674 4.870649 -0.559084 4.571287 9.443683 -3.028363 4.512402 9.464391 -3.051730 10.649716 2.564886 0.824977 -9.427337 9.797065 9.537009 0.000000 -0.000000 0.000000 0.309979 3.658724 -5.281439 -21.500177 36.821359 -3.937275 -0.000002 -24.393811 0.000002 20.407027 0.666687 2.808395 5.246494 6.685105 -76.225519 8.439466 6.703247 -103.118795 2.586201 5.381276 -51.311837 -0.000000 -0.000000 0.000000 -0.392483 20.153841 5.325747 -0.292229 21.311471 8.578932 -2.225102 8.327724 6.202478 0.000001 -0.000004 -0.000000 0.762209 2.603709 8.361003 38.916461 3.995480 38.113306 0.000008 107.909114 -0.000010 0.915667 24.206390 -40.578926 8.531614 -12.277395 5.179318 -1.921772 -26.072799 -17.001463 -3.113370 -8.655608 -9.962471 -0.000004 0.000002 0.000002 0.112228 -1.246759 10.287159 0.024414 -0.583377 4.792830 0.006118 -0.291956 2.396355 0.000002 -0.000001 -0.000000 -34.990738 -4.528933 22.389640 60.412579 -8.252535 6.367405 -20.508555 4.613565 -17.594675 -0.003518 -0.000024 -0.000003 -0.000000 -0.000002 -0.000000 6.294259 -16.376295 -16.135594 40.970521 -6.103335 1.703072 -31.269665 -16.166800 25.038302 -0.065057 -0.000029 -0.000000 0.000000 -0.000000 -0.000000 
0.399554 71.906029 3.973269 -5.374328 -22.678620 -7.048435 2.283543 4.722304 -0.250130 4.968349 8.928156 -2.542107 4.909140 8.953746 -2.568763 10.859372 1.816644 0.964764 -7.131166 5.784293 9.776461 0.000000 -0.000000 -0.000000 0.322600 3.601419 -5.419168 -18.847311 38.201371 -7.254035 0.000003 -24.472976 0.000009 22.591052 -0.589438 1.468323 5.246494 6.685104 -76.225526 8.439466 6.703247 -103.118795 2.586198 5.381276 -51.311837 0.000001 -0.000000 0.000000 -0.392483 20.153839 5.325744 -0.292230 21.311471 8.578933 -2.225104 8.327722 6.202480 -0.000000 -0.000001 0.000000 0.775831 2.633069 8.738979 39.472958 5.785564 41.283501 -0.000009 107.264904 -0.000010 4.031811 28.410186 -41.241300 8.531613 -12.277394 5.179318 -1.921762 -26.072799 -17.001461 -3.113368 -8.655603 -9.962469 -0.000000 0.000003 -0.000000 0.112231 -1.246759 10.287157 0.024410 -0.583376 4.792831 0.006115 -0.291954 2.396357 0.000002 -0.000001 -0.000001 -38.829400 -5.986563 18.830895 62.424876 -10.739882 6.779418 -18.776526 2.567171 -15.731372 -0.001313 0.000010 -0.000004 -0.000000 -0.000000 -0.000000 10.058166 -18.597365 -15.711004 42.496795 -5.584757 3.192232 -34.344896 -19.349487 23.836235 -0.002428 0.000009 -0.000004 -0.000000 0.000000 -0.000000 
